# Blender v2.77 (sub 0) OBJ File: ''
# www.blender.org
mtllib rubble_metal.mtl
o Cone_Cone.002
v 0.707097 -1.000000 0.707262
v 0.491443 -0.481875 0.523872
v -0.707107 -1.000000 0.707107
v -0.530330 -0.500000 0.530330
v 0.707107 -1.000000 0.201251
v -0.707107 -1.000000 -0.707107
v -0.353553 -1.000000 -0.707107
v 0.687347 -1.000000 0.030147
v 0.000000 -1.000000 -0.707107
v 0.712278 -0.999681 -0.706596
v -0.530330 -0.500000 -0.530330
v -0.530330 -0.500000 -0.176777
v -0.528501 -0.496272 0.192041
v -0.532616 -0.621802 -0.028137
v -0.579459 -0.575526 0.342247
v -0.069486 -0.486869 0.527506
v 0.175061 -0.602751 0.567615
v -0.363430 -0.614892 0.558487
v 0.552427 -0.562500 0.243068
v 0.541379 -0.531250 0.386699
v 0.596621 -0.687500 -0.331456
v 0.566708 -0.658044 -0.219191
v 0.575286 -0.789746 0.070423
v 0.563476 -0.593750 0.099437
v 0.331457 -0.687500 -0.596621
v -0.386699 -0.531250 -0.541379
v -0.243068 -0.562500 -0.552427
v -0.127945 -0.651551 -0.647622
v 0.044194 -0.625000 -0.574524
v 0.187825 -0.656250 -0.585573
v 0.530330 -0.500000 -0.530330
v 0.375650 -0.562500 0.243068
v -0.118264 -0.442472 0.044314
v -0.133248 -0.430743 0.243830
v -0.351425 -0.543779 -0.383724
v 0.038991 -0.674703 -0.155967
vt 0.7153 0.4994
vt 0.7164 0.7164
vt 0.2836 0.7164
vt 0.3918 0.2836
vt 0.2836 0.2836
vt 0.2836 0.2836
vt 0.5026 0.3944
vt 0.7164 0.7164
vt 0.5541 0.4459
vt 0.6082 0.5000
vt 0.3918 0.2836
vt 0.4459 0.3377
vt 0.2836 0.2836
vt 0.5754 0.4672
vt 0.7164 0.7164
vt 0.6623 0.5541
vt 0.7164 0.6082
vt 0.6082 0.6082
vt 0.6217 0.5271
vt 0.6691 0.5676
vt 0.7164 0.6082
vt 0.2838 0.2838
vt 0.4324 0.3647
vt 0.4856 0.4106
vt 0.5271 0.4459
vt 0.5000 0.5000
vt 0.5744 0.4865
vt 0.3918 0.2836
vt 0.4324 0.3309
vt 0.4729 0.3783
vt 0.3918 0.3918
vt 0.5135 0.4256
vt 0.5541 0.4729
vt 0.5000 0.5000
vt 0.5947 0.5203
vt 0.6353 0.5676
vt 0.7164 0.7164
vt 0.5000 0.3918
vt 0.5135 0.4188
vt 0.5541 0.4459
vt 0.4037 0.2955
vt 0.5512 0.4515
vt 0.5000 0.3918
vt 0.5676 0.4729
vt -0.0000 -0.0000
vt 0.5068 0.4053
vt 0.5000 0.3918
vt 0.7164 0.6082
vt 0.5000 0.2836
vt 0.7164 0.2838
vt 0.7164 0.6082
vn 0.8062 -0.5902 -0.0419
vn 0.7213 -0.6920 0.0290
vn 0.0000 -1.0000 0.0000
vn 0.0000 -0.8308 -0.5565
vn -0.4106 -0.5604 -0.7193
vn -0.9425 0.3342 -0.0000
vn 0.0781 0.9969 -0.0105
vn 0.9997 -0.0245 -0.0047
vn -0.5829 0.8124 0.0158
vn -0.9647 0.2633 -0.0023
vn 0.8399 -0.5428 -0.0014
vn -0.9930 -0.1177 -0.0067
vn -0.0001 0.3305 0.9438
vn -0.0077 0.4610 0.8873
vn 0.0008 -0.2369 -0.9715
vn -0.0052 0.3824 0.9240
vn 0.8248 -0.5605 -0.0752
vn 0.9338 0.3558 0.0375
vn 0.5953 0.7903 -0.1453
vn 0.7629 0.6404 -0.0889
vn 0.6630 -0.3958 -0.6354
vn 0.7826 0.6215 -0.0357
vn 0.7178 0.6955 -0.0336
vn 0.9325 0.3535 0.0748
vn 0.9213 0.3357 -0.1961
vn -0.4085 0.7957 -0.4472
vn -0.0000 0.3333 -0.9428
vn -0.0155 0.2691 -0.9630
vn 0.0004 0.3330 -0.9429
vn 0.1121 0.7460 -0.6565
vn -0.0165 0.7163 -0.6976
vn -0.0678 0.8889 0.4531
vn -0.0675 0.9944 0.0816
vn 0.1494 0.9658 0.2121
vn 0.2225 0.9748 0.0170
vn -0.2086 0.7660 0.6081
vn 0.7467 0.5136 0.4226
vn 0.1563 0.9779 -0.1389
vn 0.1438 0.9823 -0.1201
vn -0.0791 0.8666 -0.4926
vn -0.1466 0.8887 -0.4345
vn -0.4988 0.4383 -0.7477
vn -0.5967 0.0822 -0.7982
vn -0.0000 0.9771 -0.2126
vn -0.4076 0.7094 0.5750
vn -0.3836 0.9198 -0.0829
vn 0.4980 0.8671 -0.0136
vn 0.0208 0.9103 0.4134
vn 0.0274 0.8862 0.4624
vn 0.2634 0.9641 0.0323
vn 0.2913 0.9553 0.0498
vn 0.0831 0.9928 -0.0863
vn -0.6325 0.4472 0.6325
vn 0.0131 0.9295 -0.3685
vn 0.4151 0.9057 0.0859
vn 0.4032 0.9027 0.1501
vn 0.0832 0.4781 0.8744
vn -0.1885 0.9545 0.2312
vn -0.3247 0.8472 0.4205
vn -0.2300 0.8908 0.3920
vn 0.5599 0.7079 -0.4305
vn 0.2147 0.9762 0.0296
vn 0.2455 0.7231 -0.6457
vn 0.3983 0.7387 -0.5438
vn 0.3876 0.7489 -0.5376
vn 0.0001 -1.0000 -0.0001
vn -0.9430 0.3329 -0.0014
vn -0.0038 0.3345 0.9424
vn 0.0066 0.3395 0.9406
vn 0.0025 0.3346 0.9424
usemtl None.003
s 1
f 8/1/1 1/2/2 3/3/3
f 7/4/4 8/1/1 6/5/5
f 3/6/6 13/7/6 6/8/6
f 13/7/7 14/9/8 12/10/9
f 4/11/10 15/12/11 13/7/12
f 1/13/13 16/14/13 3/15/13
f 16/14/14 18/16/15 4/17/16
f 5/18/17 19/19/18 20/20/19 2/21/20 1/2/2
f 10/22/21 21/23/22 22/24/23 23/25/24 8/26/1
f 8/26/1 23/25/25 24/27/25 19/19/25 5/18/17
f 6/5/5 11/28/26 26/29/27 27/30/27 7/31/4
f 7/31/28 27/30/28 28/32/28 29/33/28 9/34/28
f 9/34/29 29/33/29 30/35/30 25/36/31 10/37/21
f 17/38/32 32/39/33 33/40/34
f 11/28/26 12/10/9 26/29/35
f 17/38/32 2/41/36 32/39/33
f 27/30/37 35/42/37 28/32/37
f 29/33/38 35/42/39 22/24/23
f 13/7/40 34/43/40 14/9/40
f 25/36/31 22/24/23 21/23/22
f 25/36/31 30/35/30 22/24/23
f 30/35/30 29/33/38 22/24/23
f 32/39/41 24/27/42 23/25/43
f 32/39/41 19/19/44 24/27/42
f 14/9/45 33/40/45 12/10/45
f 14/9/46 34/43/46 33/40/46
f 34/43/47 17/38/47 33/40/47
f 22/24/48 36/44/48 23/25/48
f 22/24/49 35/42/49 36/44/49
f 35/42/50 12/10/9 36/44/51
f 31/45/52 25/36/31 21/23/53
f 28/32/54 35/42/54 29/33/54
f 34/43/55 16/14/56 17/38/57
f 34/43/58 13/7/58 16/14/58
f 32/39/41 20/46/19 19/19/44
f 32/39/41 2/41/20 20/46/19
f 13/7/59 18/47/59 16/14/59
f 13/7/60 15/12/60 18/47/60
f 15/12/61 4/11/61 18/47/61
f 26/29/35 35/42/50 27/30/62
f 26/29/35 12/10/9 35/42/50
f 33/40/63 36/44/63 12/10/63
f 33/40/64 32/39/64 36/44/64
f 32/39/65 23/25/65 36/44/65
f 8/1/1 5/48/17 1/2/2
f 6/5/5 8/1/1 3/3/3
f 7/4/4 9/49/66 8/1/1
f 9/49/66 10/50/21 8/1/1
f 6/8/5 12/10/9 11/51/26
f 6/8/5 13/7/7 12/10/9
f 3/6/67 4/11/10 13/7/12
f 3/15/68 16/14/14 4/17/16
f 1/13/69 17/38/57 16/14/56
f 1/13/70 2/41/36 17/38/32
f 21/23/22 10/22/21 31/45/52
f 31/45/52 10/37/21 25/36/31
