# Blender v2.77 (sub 0) OBJ File: ''
# www.blender.org
mtllib prism_flesh.mtl
o Cone_Cone.005
v -0.650372 -0.887344 -0.580078
v -0.618121 -0.851731 -0.529414
v -0.576492 -0.895231 -0.580414
v 0.673997 -0.861030 -0.562981
v 0.679865 -0.938204 0.566313
v 0.584118 -0.931119 0.556558
v -0.623419 -0.904616 0.565785
v -0.613701 -0.866514 0.472022
v 0.661476 -0.935829 0.509629
v 0.552220 -0.992956 0.467987
v -0.566400 -0.967627 0.541595
v -0.416710 -1.012715 0.566568
v -0.529032 -0.938700 0.647303
v -0.240947 -0.906634 0.619671
v -0.423854 -0.953515 0.657473
v 0.001969 -0.983821 0.561905
v -0.263089 -0.991731 0.532480
v 0.243009 -0.823113 0.630602
v 0.273361 -0.951184 0.539157
v 0.374635 -0.846725 0.564905
v 0.401759 -0.937029 0.475046
v -0.575993 -0.940005 -0.586127
v -0.648759 -0.931782 -0.381397
v -0.542606 -1.017034 -0.451767
v -0.497204 -1.040291 -0.226223
v -0.648965 -0.896194 -0.078478
v -0.582345 -0.887105 0.081245
v -0.484576 -0.958899 0.079206
v -0.573734 -0.937186 0.237339
v -0.569294 -0.977459 0.344534
v -0.491261 -0.917445 -0.582696
v -0.414378 -0.990196 -0.383200
v -0.416013 -1.003872 0.332137
v -0.284939 -0.957173 -0.469800
v -0.258756 -0.881669 -0.604097
v 0.096189 -0.961589 -0.515163
v 0.084949 -0.861853 -0.628152
v 0.296500 -0.893414 -0.579786
v 0.296956 -1.006179 -0.489407
v 0.427308 -0.973017 -0.382288
v 0.035987 -1.006441 0.009743
v 0.562123 -0.861514 -0.602297
v 0.569497 -0.991613 -0.043060
v 0.601905 -0.995656 0.226347
v 0.535523 -0.991249 0.367367
v 0.659708 -0.873415 -0.375576
v 0.634913 -0.934266 -0.127794
v 0.638842 -0.924947 0.035176
v 0.620391 -0.906753 0.383333
v -0.634439 -0.803976 -0.429980
v -0.645853 -0.761854 0.045044
v -0.604038 -0.768665 0.180637
v -0.574592 -0.748393 0.420003
v -0.505367 -0.686928 -0.478474
v -0.531066 -0.556917 -0.361941
v -0.323070 -0.171339 -0.401110
v -0.426959 -0.289536 -0.318753
v -0.576702 -0.588931 -0.060327
v -0.435028 -0.326860 0.045604
v -0.165153 0.169157 -0.202025
v -0.592970 -0.555462 0.141462
v -0.249605 0.095806 -0.097803
v -0.463767 -0.317372 0.135435
v -0.355056 -0.115695 0.097187
v -0.184297 0.288303 -0.083827
v -0.089127 0.454123 -0.188107
v -0.564563 -0.555260 0.440331
v -0.487625 -0.314793 0.288293
v -0.334452 -0.107785 0.218207
v -0.109073 0.499639 -0.043056
v -0.538364 -0.648298 0.571138
v -0.474704 -0.412077 0.478017
v -0.329837 -0.177096 0.350612
v -0.181248 0.095705 0.285792
v -0.099463 0.408798 0.111641
v -0.162603 -0.756031 0.572997
v 0.055977 -0.501690 0.539825
v 0.309536 -0.676976 0.602400
v -0.427748 -0.631763 0.589758
v -0.254023 -0.580226 0.548610
v -0.312800 -0.355512 0.469910
v -0.201818 -0.130878 0.402335
v -0.069010 0.033353 0.394543
v -0.143247 0.107940 0.346377
v 0.104735 -0.101196 0.442831
v -0.042246 0.276954 0.242752
v 0.361557 -0.544521 0.575099
v 0.270132 -0.136212 0.405771
v 0.267817 0.102221 0.283851
v 0.065913 0.295004 0.253151
v 0.048175 0.478845 0.145750
v 0.522433 -0.612428 0.525963
v 0.480020 -0.388865 0.452068
v 0.442318 -0.238566 0.360087
v 0.188120 0.271483 0.245729
v 0.093312 0.458396 -0.002509
v -0.009987 0.594331 -0.059198
v 0.607395 -0.750921 0.448310
v 0.661163 -0.930756 0.205028
v 0.592899 -0.797581 -0.005533
v 0.654274 -0.761106 -0.290624
v 0.625389 -0.723744 -0.428425
v 0.562534 -0.569238 0.151901
v 0.391766 -0.124393 0.094696
v 0.377386 -0.093955 0.218704
v 0.447888 -0.410652 -0.013336
v 0.304191 0.133692 0.177971
v 0.449421 -0.362271 -0.156777
v 0.396708 -0.120090 -0.100942
v 0.299533 0.120529 0.007274
v 0.472438 -0.330413 -0.292699
v 0.349047 0.092350 -0.128017
v 0.505586 -0.573496 -0.453764
v 0.416459 -0.268917 -0.365932
v 0.364656 0.039719 -0.257386
v 0.071499 0.446043 -0.126602
v 0.493615 -0.727800 -0.574234
v 0.335252 -0.739012 -0.576327
v 0.096094 -0.741303 -0.635725
v -0.165131 -0.729438 -0.639365
v -0.480174 -0.830220 -0.567826
v 0.322680 -0.582369 -0.509831
v 0.103648 -0.507996 -0.596638
v 0.148547 -0.308475 -0.450886
v 0.241653 -0.101726 -0.325219
v -0.029006 -0.491160 -0.601418
v 0.020949 -0.072505 -0.330436
v 0.176615 0.090105 -0.292664
v -0.188090 -0.487406 -0.553081
v -0.125870 -0.304508 -0.458968
v -0.096567 -0.073810 -0.308940
v -0.126250 0.100613 -0.251373
v 0.042799 0.307106 -0.221367
v -0.331620 -0.579484 -0.543224
v -0.176289 -0.115230 -0.360698
v -0.042924 0.502053 -0.171653
vt 0.2836 0.2969
vt 0.3317 0.2836
vt 0.3317 0.3317
vt 0.7164 0.6683
vt 0.6683 0.7164
vt 0.6683 0.6683
vt 0.3317 0.6683
vt 0.2836 0.7164
vt 0.2836 0.6683
vt 0.3798 0.6683
vt 0.3317 0.7164
vt 0.4350 0.7164
vt 0.3798 0.7164
vt 0.5003 0.6683
vt 0.4279 0.6683
vt 0.5711 0.7164
vt 0.5721 0.6683
vt 0.6202 0.7164
vt 0.6202 0.6683
vt 0.3317 0.3317
vt 0.2836 0.3968
vt 0.3317 0.4354
vt 0.2836 0.4760
vt 0.2836 0.5240
vt 0.3317 0.5265
vt 0.2836 0.5812
vt 0.3317 0.6202
vt 0.3798 0.2928
vt 0.3317 0.2836
vt 0.3317 0.3798
vt 0.3798 0.3798
vt 0.3798 0.5240
vt 0.3798 0.6202
vt 0.4279 0.3317
vt 0.4279 0.2836
vt 0.5153 0.3317
vt 0.4279 0.3798
vt 0.5721 0.2836
vt 0.5104 0.2836
vt 0.5721 0.3317
vt 0.5240 0.3798
vt 0.5240 0.6202
vt 0.6202 0.3317
vt 0.5721 0.6202
vt 0.6202 0.6202
vt 0.6633 0.2836
vt 0.7164 0.2864
vt 0.6683 0.3317
vt 0.7164 0.4672
vt 0.6683 0.5005
vt 0.6683 0.4279
vt 0.7164 0.5240
vt 0.6683 0.5721
vt 0.7164 0.6202
vt 0.6683 0.6202
vt 0.6032 0.6032
vt 0.6647 0.6166
vt 0.7031 0.7031
vt 0.5240 0.5240
vt 0.4760 0.4760
vt 0.5240 0.4760
vt 0.4188 0.4188
vt 0.4760 0.4279
vt 0.3317 0.3317
vt 0.3905 0.3424
vt 0.7164 0.6683
vt 0.7164 0.6202
vt 0.6608 0.5646
vt 0.7164 0.5248
vt 0.6683 0.5116
vt 0.5721 0.4760
vt 0.5721 0.4279
vt 0.7164 0.4362
vt 0.5171 0.4210
vt 0.6661 0.4279
vt 0.5240 0.3798
vt 0.5721 0.3798
vt 0.6683 0.3798
vt 0.7164 0.3798
vt 0.4279 0.3317
vt 0.4760 0.3317
vt 0.5292 0.3317
vt 0.6671 0.3317
vt 0.2864 0.2836
vt 0.3798 0.2836
vt 0.4279 0.2836
vt 0.4760 0.2836
vt 0.5473 0.2836
vt 0.6202 0.2836
vt 0.4289 0.4289
vt 0.5240 0.4760
vt 0.5650 0.5650
vt 0.3798 0.3798
vt 0.4228 0.3747
vt 0.3317 0.3317
vt 0.6683 0.6670
vt 0.7164 0.6202
vt 0.7164 0.7136
vt 0.6202 0.6204
vt 0.6683 0.5721
vt 0.7164 0.5721
vt 0.5721 0.5240
vt 0.6202 0.5240
vt 0.6683 0.5240
vt 0.7164 0.5240
vt 0.5721 0.4760
vt 0.6595 0.4760
vt 0.7164 0.4527
vt 0.5721 0.4279
vt 0.6202 0.3974
vt 0.6683 0.4279
vt 0.4760 0.4279
vt 0.5721 0.3798
vt 0.6683 0.3798
vt 0.7164 0.3798
vt 0.4279 0.3317
vt 0.4760 0.3798
vt 0.5180 0.3317
vt 0.5240 0.3798
vt 0.5348 0.2944
vt 0.6202 0.3317
vt 0.6759 0.3393
vt 0.2961 0.2836
vt 0.3798 0.2836
vt 0.4279 0.2836
vt 0.4760 0.2836
vt 0.5721 0.2836
vt 0.6607 0.3241
vt 0.6675 0.3317
vt 0.7164 0.3317
vt 0.6202 0.6202
vt 0.6670 0.6146
vt 0.6683 0.6683
vt 0.5721 0.5677
vt 0.4672 0.4672
vt 0.5159 0.4679
vt 0.5240 0.5240
vt 0.3798 0.3798
vt 0.4309 0.3798
vt 0.2899 0.2864
vt 0.3844 0.3317
vt 0.7164 0.7039
vt 0.7164 0.6202
vt 0.7164 0.5721
vt 0.5812 0.4851
vt 0.6950 0.5240
vt 0.6202 0.4367
vt 0.6683 0.4760
vt 0.7164 0.4760
vt 0.5555 0.4279
vt 0.6683 0.4263
vt 0.7164 0.4279
vt 0.5240 0.3798
vt 0.5721 0.3798
vt 0.6202 0.3798
vt 0.4878 0.3317
vt 0.5721 0.3317
vt 0.3869 0.2836
vt 0.4760 0.2836
vt 0.5271 0.2836
vt 0.6202 0.2836
vt 0.6683 0.2836
vt 0.5721 0.5721
vt 0.6202 0.5721
vt 0.6633 0.6633
vt 0.5104 0.5104
vt 0.5361 0.4880
vt 0.4279 0.4279
vt 0.4687 0.4206
vt 0.3798 0.3798
vt 0.3798 0.3317
vt 0.6683 0.6202
vt 0.7164 0.7127
vt 0.7164 0.6131
vt 0.6414 0.5452
vt 0.7000 0.5240
vt 0.5721 0.4760
vt 0.6202 0.4760
vt 0.6683 0.4760
vt 0.7164 0.4729
vt 0.5249 0.4279
vt 0.6202 0.4279
vt 0.6683 0.4279
vt 0.4760 0.3715
vt 0.5240 0.3798
vt 0.5721 0.3798
vt 0.5785 0.3381
vt 0.6683 0.3798
vt 0.7164 0.3798
vt 0.4279 0.3317
vt 0.5240 0.3317
vt 0.6202 0.2830
vt 0.6683 0.3317
vt 0.3798 0.2836
vt 0.4752 0.2836
vt 0.5638 0.2836
vt 0.3798 0.4279
vt 0.3798 0.5721
vt 0.4279 0.6202
vt 0.4760 0.6202
vt 0.5721 0.3798
vt 0.6202 0.4279
vt 0.6202 0.5240
vt 0.6202 0.5721
vt 0.7164 0.3798
vt 0.6683 0.3798
vt 0.7164 0.5721
vn 0.0816 0.7902 -0.6074
vn 0.2482 -0.8340 0.4928
vn -0.7611 -0.5696 -0.3103
vn -0.3234 -0.8774 0.3544
vn 0.3118 -0.7848 0.5356
vn -0.0571 -0.7072 0.7047
vn 0.0609 -0.4681 0.8816
vn 0.3125 -0.5018 0.8065
vn -0.2641 -0.7190 0.6429
vn -0.5784 -0.7970 -0.1736
vn -0.6387 -0.7643 0.0894
vn -0.5178 -0.8143 0.2623
vn -0.5804 -0.7842 -0.2196
vn -0.9519 -0.2978 -0.0724
vn 0.0064 0.1266 -0.9919
vn 0.2385 -0.8157 -0.5269
vn 0.2807 -0.9473 -0.1542
vn -0.0535 -0.9643 0.2592
vn -0.1783 -0.9760 -0.1252
vn -0.1655 -0.9849 0.0516
vn 0.0083 -0.9384 -0.3454
vn 0.1272 -0.9912 -0.0370
vn -0.0694 -0.8637 -0.4991
vn -0.0220 -0.9959 -0.0876
vn 0.0402 -0.7471 -0.6635
vn -0.2026 -0.9735 -0.1064
vn 0.1232 -0.9912 0.0482
vn 0.6252 -0.4865 -0.6102
vn 0.1314 -0.9903 0.0445
vn -0.3079 -0.8754 0.3726
vn 0.1373 -0.9149 -0.3795
vn 0.4498 -0.8614 -0.2358
vn 0.7457 -0.6588 -0.0996
vn 0.6370 -0.7006 0.3217
vn 0.7117 -0.6903 -0.1298
vn -0.9915 0.1248 0.0360
vn -0.9942 0.1064 -0.0132
vn -0.8648 -0.3288 0.3794
vn -0.9840 -0.1779 -0.0028
vn -0.9500 0.2148 -0.2265
vn -0.2390 0.8594 -0.4520
vn -0.6935 0.5985 -0.4012
vn -0.6372 0.4407 -0.6322
vn -0.7535 0.3499 -0.5566
vn -0.8014 0.3858 -0.4571
vn -0.9984 0.0492 -0.0284
vn -0.9379 0.3428 -0.0529
vn -0.9089 0.4063 -0.0944
vn -0.8635 0.4983 -0.0778
vn -0.9326 0.3605 0.0163
vn -0.8080 0.5278 -0.2618
vn -0.8901 -0.3775 0.2555
vn -0.9489 0.1040 0.2979
vn -0.9452 0.3011 -0.1261
vn -0.8419 0.5173 -0.1537
vn -0.9128 0.4078 0.0216
vn -0.8021 0.5285 -0.2780
vn -0.9824 -0.1322 0.1320
vn -0.9906 0.0727 0.1157
vn -0.8375 0.4465 -0.3151
vn -0.8586 0.4027 -0.3172
vn -0.9231 0.3728 -0.0949
vn -0.9330 0.3274 -0.1495
vn -0.8336 0.3157 -0.4533
vn -0.8808 0.2545 -0.3992
vn -0.9946 0.0417 0.0945
vn -0.9312 0.3537 0.0883
vn -0.8713 0.4692 -0.1439
vn -0.8179 0.5588 -0.1371
vn -0.8651 0.4882 0.1154
vn -0.9103 0.3933 0.1293
vn -0.9316 0.3503 -0.0970
vn -0.8994 0.3662 -0.2386
vn -0.9439 0.3282 0.0355
vn -0.9491 0.3145 0.0192
vn -0.9761 0.0280 0.2154
vn -0.8081 0.3913 0.4402
vn -0.8432 0.4529 0.2897
vn -0.6897 0.6242 0.3670
vn -0.6904 0.6308 0.3543
vn -0.8078 0.5102 0.2952
vn -0.7918 0.4644 0.3967
vn -0.8786 0.3859 0.2812
vn -0.0628 0.2372 0.9694
vn 0.4423 -0.0284 0.8964
vn -0.0564 -0.2359 0.9701
vn -0.6035 0.1841 0.7758
vn -0.0656 0.2047 0.9766
vn -0.1962 0.2429 0.9500
vn -0.2105 0.4071 0.8888
vn 0.1415 0.2251 0.9640
vn 0.1514 0.2126 0.9653
vn 0.1676 0.2050 0.9643
vn 0.1145 0.3549 0.9279
vn -0.1063 0.4326 0.8953
vn -0.1472 0.5400 0.8287
vn -0.4154 0.4594 0.7851
vn -0.0060 0.1344 0.9909
vn -0.0529 0.3147 0.9477
vn -0.0619 0.3154 0.9469
vn -0.4703 0.4591 0.7537
vn -0.4681 0.4374 0.7678
vn -0.2054 0.2115 0.9555
vn -0.3016 0.2870 0.9092
vn -0.8320 0.3116 0.4589
vn -0.0837 0.2254 0.9707
vn -0.0798 0.2438 0.9665
vn -0.0174 0.5301 0.8477
vn -0.7130 0.6231 0.3214
vn -0.4553 0.5207 0.7222
vn -0.0795 0.2311 0.9697
vn -0.0548 0.3720 0.9266
vn 0.2541 0.1983 0.9466
vn 0.2839 0.4387 0.8526
vn 0.1692 0.5191 0.8378
vn 0.2198 0.3737 0.9012
vn -0.1688 0.5346 0.8281
vn -0.1636 0.4858 0.8586
vn -0.4240 0.5394 0.7275
vn -0.1186 -0.2989 0.9469
vn 0.2619 0.2423 0.9342
vn 0.3183 0.0699 0.9454
vn 0.4070 0.3553 0.8415
vn 0.3229 0.4233 0.8465
vn 0.5005 0.5398 0.6769
vn 0.4534 0.4093 0.7918
vn 0.1096 0.2672 0.9574
vn 0.1495 0.5095 0.8474
vn -0.1292 0.2965 0.9463
vn 0.9458 0.1890 -0.2642
vn 0.9744 -0.0123 0.2245
vn 0.9440 0.3273 -0.0415
vn 0.9953 -0.0229 0.0940
vn 0.9633 0.2527 0.0902
vn 0.9385 0.1760 -0.2971
vn 0.8794 0.4457 0.1673
vn 0.8618 0.2989 0.4098
vn 0.9640 0.2655 0.0168
vn 0.9482 0.3139 0.0489
vn 0.9329 0.3266 0.1513
vn 0.9456 0.3047 -0.1138
vn 0.9580 0.2378 -0.1602
vn 0.9344 0.3555 -0.0251
vn 0.9107 0.4130 0.0042
vn 0.8809 0.4675 0.0737
vn 0.8939 0.3289 -0.3046
vn 0.8941 0.3006 -0.3319
vn 0.9497 0.3114 0.0337
vn 0.8517 0.3445 0.3950
vn 0.7872 0.4625 0.4079
vn 0.9700 0.0999 0.2216
vn 0.9075 0.3450 0.2395
vn 0.8990 0.4119 0.1485
vn 0.9778 0.1952 0.0763
vn 0.9829 0.1818 0.0288
vn 0.9316 0.3621 0.0315
vn 0.9405 0.3358 -0.0516
vn 0.7896 0.5984 0.1358
vn 0.9731 0.1671 -0.1587
vn 0.9179 0.3871 -0.0874
vn 0.8939 0.3786 0.2401
vn 0.9656 0.1636 0.2019
vn 0.9644 0.2324 0.1260
vn 0.9259 0.2444 0.2880
vn 0.8341 0.5148 0.1980
vn 0.8527 0.5186 -0.0633
vn 0.7862 0.5978 0.1569
vn 0.7703 0.5641 -0.2973
vn 0.6947 0.4607 -0.5524
vn 0.8623 0.3562 -0.3600
vn 0.8622 0.2907 -0.4150
vn 0.9602 0.2794 0.0022
vn 0.7858 0.6002 -0.1494
vn 0.7644 0.6144 -0.1955
vn 0.8184 0.5396 -0.1976
vn -0.0897 0.0448 -0.9950
vn 0.2107 -0.0807 -0.9742
vn -0.0575 -0.1916 -0.9798
vn -0.0610 -0.1895 -0.9800
vn 0.0169 0.1659 -0.9860
vn 0.3099 0.3447 -0.8861
vn 0.4380 0.5319 -0.7247
vn -0.0016 0.2046 -0.9788
vn -0.0154 0.3897 -0.9208
vn 0.2099 0.5915 -0.7785
vn 0.2412 -0.0388 -0.9697
vn 0.2177 0.3961 -0.8920
vn 0.2609 0.3372 -0.9046
vn 0.4051 0.1383 -0.9037
vn 0.4573 0.4552 -0.7640
vn 0.2368 0.3459 -0.9079
vn 0.2130 0.4357 -0.8746
vn 0.1147 0.3467 -0.9309
vn 0.0110 -0.0637 -0.9979
vn 0.0204 0.1459 -0.9891
vn 0.0562 0.1632 -0.9850
vn 0.1019 0.5718 -0.8141
vn 0.1733 0.5205 -0.8361
vn 0.0853 0.4892 -0.8680
vn 0.0474 0.1827 -0.9820
vn 0.2410 0.2412 -0.9401
vn -0.2708 0.3004 -0.9146
vn -0.2395 0.5074 -0.8277
vn -0.1435 0.5523 -0.8212
vn -0.1562 0.5498 -0.8206
vn -0.1757 0.2814 -0.9434
vn -0.1163 0.3291 -0.9371
vn -0.1229 0.2405 -0.9628
vn 0.2799 0.4510 -0.8475
vn 0.3155 0.4893 -0.8130
vn -0.2762 0.1955 -0.9410
vn -0.2931 0.2638 -0.9190
vn -0.2572 0.3028 -0.9177
vn -0.0068 0.4594 -0.8882
vn 0.2739 0.4996 -0.8218
vn 0.3769 0.3475 -0.8586
vn -0.0463 0.1807 -0.9824
vn 0.0604 0.2715 -0.9605
vn 0.5018 0.4143 -0.7593
vn 0.5276 0.5744 -0.6259
vn -0.3006 0.5904 -0.7490
vn -0.3040 0.4650 -0.8315
vn -0.5213 0.3837 -0.7623
vn -0.4889 0.2960 -0.8206
vn -0.2688 0.3217 -0.9079
vn 0.0698 0.4563 -0.8871
vn 0.0550 0.4849 -0.8729
vn -0.2261 0.4814 -0.8469
vn -0.6140 0.2011 -0.7633
vn -0.0719 -0.9972 -0.0185
vn -0.5973 -0.6945 0.4012
vn -0.1683 -0.8320 0.5286
vn 0.2422 -0.7244 0.6455
vn 0.1355 -0.5543 0.8212
vn 0.4151 -0.5760 0.7042
vn -0.2498 -0.7494 0.6132
vn 0.0090 0.1267 -0.9919
vn -0.6952 -0.6844 -0.2196
vn -0.6090 -0.7921 0.0409
vn -0.5724 -0.7861 0.2332
vn -0.6258 -0.7383 -0.2515
vn -0.9140 -0.4044 0.0336
vn 0.4059 -0.7971 -0.4471
vn 0.1596 -0.9617 -0.2227
vn -0.1092 -0.9834 -0.1452
vn -0.2825 -0.9585 -0.0370
vn 0.0910 -0.8755 -0.4745
vn 0.1255 -0.9749 -0.1841
vn 0.0243 -0.9988 0.0420
vn -0.0031 -0.7499 -0.6616
vn 0.0251 -0.9988 0.0425
vn -0.0388 -0.6250 -0.7796
vn 0.1748 -0.9804 0.0909
vn 0.0738 -0.9071 -0.4145
vn 0.0214 -0.9977 -0.0637
vn 0.0260 -0.9995 -0.0181
vn 0.0060 -0.9994 0.0341
vn 0.0482 -0.9985 -0.0249
vn 0.3945 -0.9184 -0.0306
vn 0.3918 -0.9018 -0.1823
vn 0.6776 -0.7350 0.0257
vn 0.7139 -0.6904 -0.1174
vn 0.7544 -0.6053 0.2540
vn 0.5354 -0.7682 -0.3510
vn -0.6786 0.6527 -0.3368
vn -0.3712 0.8978 -0.2369
vn 0.0752 0.8619 0.5015
vn -0.6290 0.7128 -0.3102
usemtl None
s off
f 1/1/1 2/2/1 3/3/1
f 9/4/2 6/5/2 10/6/2
f 11/7/3 7/8/3 8/9/3
f 12/10/4 13/11/4 11/7/4
f 12/10/5 14/12/5 15/13/5
f 16/14/6 14/12/6 17/15/6
f 16/14/7 18/16/7 14/12/7
f 19/17/8 20/18/8 18/16/8
f 21/19/9 6/5/9 20/18/9
f 22/20/10 23/21/10 1/1/10
f 23/21/11 25/22/11 26/23/11
f 25/22/12 27/24/12 26/23/12
f 27/24/13 28/25/13 29/26/13
f 30/27/14 8/9/14 29/26/14
f 31/28/15 22/20/15 3/29/15
f 31/28/16 24/30/16 22/20/16
f 32/31/17 25/22/17 24/30/17
f 25/22/18 41/32/18 28/25/18
f 28/25/19 33/33/19 30/27/19
f 33/33/20 11/7/20 30/27/20
f 34/34/21 32/31/21 31/28/21
f 33/33/22 17/15/22 12/10/22
f 35/35/23 36/36/23 34/34/23
f 36/36/24 41/37/24 34/34/24
f 38/38/25 36/36/25 37/39/25
f 39/40/26 41/41/26 36/36/26
f 41/42/27 19/17/27 16/14/27
f 38/38/28 40/43/28 39/40/28
f 41/44/29 21/19/29 19/17/29
f 41/45/30 10/6/30 21/19/30
f 42/46/31 4/47/31 40/48/31
f 47/49/32 43/50/32 40/51/32
f 48/52/33 44/53/33 43/50/33
f 44/53/34 49/54/34 45/55/34
f 49/54/35 10/6/35 45/55/35
f 23/56/36 50/57/36 1/58/36
f 26/59/37 50/57/37 23/56/37
f 27/60/38 51/61/38 26/59/38
f 29/62/39 52/63/39 27/60/39
f 8/64/40 53/65/40 29/62/40
f 1/58/41 50/57/41 2/66/41
f 50/57/42 54/67/42 2/66/42
f 50/57/43 55/68/43 54/67/43
f 55/68/44 56/69/44 54/67/44
f 55/68/45 57/70/45 56/69/45
f 26/59/46 51/61/46 50/57/46
f 51/61/47 58/71/47 50/57/47
f 50/57/48 58/71/48 55/68/48
f 58/71/49 59/72/49 55/68/49
f 55/68/50 59/72/50 57/70/50
f 57/70/51 60/73/51 56/69/51
f 27/60/52 52/63/52 51/61/52
f 52/63/53 61/74/53 51/61/53
f 51/61/54 61/74/54 58/71/54
f 61/74/55 59/72/55 58/71/55
f 59/72/56 62/75/56 57/70/56
f 57/70/57 62/75/57 60/73/57
f 29/62/58 53/65/58 52/63/58
f 53/65/59 61/74/59 52/63/59
f 61/74/60 63/76/60 59/72/60
f 63/76/61 64/77/61 59/72/61
f 59/72/62 64/77/62 62/75/62
f 64/77/63 65/78/63 62/75/63
f 62/75/64 65/78/64 60/73/64
f 65/78/65 66/79/65 60/73/65
f 53/65/66 67/80/66 61/74/66
f 67/80/67 68/81/67 61/74/67
f 61/74/68 68/81/68 63/76/68
f 68/81/69 69/82/69 63/76/69
f 63/76/70 69/82/70 64/77/70
f 69/82/71 70/83/71 64/77/71
f 64/77/72 70/83/72 65/78/72
f 65/78/73 70/83/73 66/79/73
f 8/64/74 7/84/74 53/65/74
f 7/84/75 71/85/75 53/65/75
f 53/65/76 71/85/76 67/80/76
f 71/85/77 72/86/77 67/80/77
f 67/80/78 72/86/78 68/81/78
f 72/86/79 73/87/79 68/81/79
f 68/81/80 73/87/80 69/82/80
f 73/87/81 74/88/81 69/82/81
f 69/82/82 74/88/82 70/83/82
f 74/88/83 75/89/83 70/83/83
f 18/90/84 77/91/84 14/92/84
f 20/93/85 78/94/85 18/90/85
f 6/95/86 78/94/86 20/93/86
f 13/96/87 71/97/87 7/98/87
f 15/99/88 79/100/88 13/96/88
f 13/96/89 79/100/89 71/97/89
f 79/100/90 72/101/90 71/97/90
f 14/92/91 76/102/91 15/99/91
f 76/102/92 80/103/92 15/99/92
f 15/99/93 80/103/93 79/100/93
f 80/103/94 81/104/94 79/100/94
f 79/100/95 81/104/95 72/101/95
f 81/104/96 73/105/96 72/101/96
f 14/92/97 77/91/97 76/102/97
f 76/102/98 77/106/98 80/103/98
f 77/106/99 82/107/99 80/103/99
f 80/103/100 82/107/100 81/104/100
f 81/104/101 82/107/101 73/105/101
f 82/107/102 74/108/102 73/105/102
f 77/109/103 83/110/103 82/107/103
f 83/110/104 84/111/104 82/107/104
f 82/107/105 84/111/105 74/108/105
f 18/90/106 78/94/106 77/112/106
f 77/109/107 85/113/107 83/110/107
f 83/110/108 86/114/108 84/111/108
f 84/111/109 86/114/109 74/108/109
f 86/114/110 75/115/110 74/108/110
f 78/94/111 87/116/111 77/117/111
f 87/116/112 88/118/112 77/117/112
f 77/119/113 88/118/113 85/113/113
f 88/118/114 89/120/114 85/113/114
f 85/113/115 89/120/115 83/110/115
f 89/120/116 90/121/116 83/110/116
f 83/110/117 90/121/117 86/114/117
f 90/121/118 91/122/118 86/114/118
f 86/114/119 91/122/119 75/115/119
f 6/95/120 5/123/120 78/94/120
f 5/123/121 92/124/121 78/94/121
f 78/94/122 92/124/122 87/116/122
f 92/124/123 93/125/123 87/116/123
f 87/116/124 93/125/124 88/118/124
f 93/125/125 94/126/125 88/118/125
f 94/126/126 89/120/126 88/118/126
f 89/120/127 95/127/127 90/121/127
f 95/127/128 91/128/128 90/121/128
f 96/129/129 97/130/129 70/83/129
f 49/131/130 98/132/130 9/133/130
f 99/134/131 98/132/131 49/131/131
f 47/135/132 100/136/132 48/137/132
f 46/138/133 101/139/133 47/135/133
f 4/140/134 102/141/134 46/138/134
f 9/133/135 98/132/135 5/142/135
f 98/132/136 92/143/136 5/142/136
f 98/132/137 93/144/137 92/143/137
f 99/134/138 103/145/138 98/132/138
f 103/145/139 94/146/139 98/132/139
f 98/132/140 94/146/140 93/144/140
f 48/137/141 100/136/141 99/134/141
f 100/136/142 103/145/142 99/134/142
f 103/145/143 104/147/143 94/146/143
f 104/147/144 105/148/144 94/146/144
f 105/148/145 89/149/145 94/146/145
f 100/136/146 106/150/146 103/145/146
f 103/145/147 106/150/147 104/147/147
f 104/147/148 107/151/148 105/148/148
f 105/148/149 107/151/149 89/149/149
f 107/151/150 95/152/150 89/149/150
f 47/135/151 101/139/151 100/136/151
f 100/136/152 101/139/152 106/150/152
f 101/139/153 108/153/153 106/150/153
f 108/153/154 109/154/154 106/150/154
f 106/150/155 109/154/155 104/147/155
f 109/154/156 110/155/156 104/147/156
f 104/147/157 110/155/157 107/151/157
f 107/151/158 91/122/158 95/152/158
f 46/138/159 102/141/159 101/139/159
f 102/141/160 111/156/160 101/139/160
f 101/139/161 111/156/161 108/153/161
f 108/153/162 111/156/162 109/154/162
f 111/156/163 112/157/163 109/154/163
f 109/154/164 112/157/164 110/155/164
f 112/157/165 96/129/165 110/155/165
f 110/155/166 96/129/166 107/151/166
f 107/151/167 96/129/167 91/122/167
f 4/140/168 113/158/168 102/141/168
f 102/141/169 113/158/169 111/156/169
f 113/158/170 114/159/170 111/156/170
f 114/159/171 115/160/171 111/156/171
f 111/156/172 115/160/172 112/157/172
f 112/157/173 115/160/173 96/129/173
f 115/160/174 116/161/174 96/129/174
f 116/161/175 97/162/175 96/129/175
f 38/163/176 118/164/176 42/165/176
f 37/166/177 119/167/177 38/163/177
f 35/168/178 120/169/178 37/166/178
f 31/170/179 120/169/179 35/168/179
f 3/3/180 121/171/180 31/170/180
f 42/165/181 117/172/181 4/173/181
f 117/172/182 113/174/182 4/173/182
f 42/165/183 118/164/183 117/172/183
f 118/164/184 122/175/184 117/172/184
f 117/172/185 122/175/185 113/174/185
f 38/163/186 119/167/186 118/164/186
f 119/167/187 122/175/187 118/164/187
f 122/175/188 114/176/188 113/174/188
f 119/167/189 123/177/189 122/175/189
f 123/177/190 124/178/190 122/175/190
f 122/175/191 124/178/191 114/176/191
f 124/178/192 125/179/192 114/176/192
f 125/179/193 115/180/193 114/176/193
f 37/166/194 120/169/194 119/167/194
f 120/169/195 126/181/195 119/167/195
f 119/167/196 126/181/196 123/177/196
f 123/177/197 126/181/197 124/178/197
f 126/181/198 127/182/198 124/178/198
f 124/178/199 127/182/199 125/179/199
f 127/182/200 128/183/200 125/179/200
f 125/179/201 128/183/201 115/180/201
f 120/169/202 129/184/202 126/181/202
f 129/184/203 130/185/203 126/181/203
f 130/185/204 131/186/204 126/181/204
f 126/181/205 131/186/205 127/182/205
f 131/186/206 132/187/206 127/182/206
f 127/182/207 132/187/207 128/183/207
f 132/187/208 133/188/208 128/183/208
f 128/183/209 133/188/209 115/180/209
f 133/188/210 116/189/210 115/180/210
f 31/170/211 121/171/211 120/169/211
f 121/171/212 134/190/212 120/169/212
f 120/169/213 134/190/213 129/184/213
f 129/184/214 135/191/214 130/185/214
f 130/185/215 135/191/215 131/186/215
f 135/191/216 132/187/216 131/186/216
f 132/187/217 66/192/217 133/188/217
f 66/192/218 136/193/218 133/188/218
f 133/188/219 136/193/219 116/189/219
f 136/193/220 97/130/220 116/189/220
f 3/3/221 2/2/221 121/171/221
f 2/2/222 54/194/222 121/171/222
f 121/171/223 54/194/223 134/190/223
f 54/194/224 56/195/224 134/190/224
f 134/190/225 56/195/225 129/184/225
f 129/184/226 56/195/226 135/191/226
f 56/195/227 60/196/227 135/191/227
f 135/191/228 60/196/228 132/187/228
f 132/187/229 60/196/229 66/192/229
f 9/4/230 5/142/230 6/5/230
f 11/7/231 13/11/231 7/8/231
f 12/10/232 15/13/232 13/11/232
f 12/10/233 17/15/233 14/12/233
f 16/14/234 19/17/234 18/16/234
f 19/17/235 21/19/235 20/18/235
f 21/19/236 10/6/236 6/5/236
f 1/1/237 3/29/237 22/20/237
f 22/20/238 24/30/238 23/21/238
f 24/30/239 25/22/239 23/21/239
f 25/22/240 28/25/240 27/24/240
f 29/26/241 28/25/241 30/27/241
f 30/27/242 11/7/242 8/9/242
f 31/28/243 32/31/243 24/30/243
f 32/31/244 41/197/244 25/22/244
f 28/25/245 41/198/245 33/33/245
f 33/33/246 12/10/246 11/7/246
f 31/28/247 35/35/247 34/34/247
f 34/34/248 41/37/248 32/31/248
f 33/33/249 41/199/249 17/15/249
f 35/35/250 37/39/250 36/36/250
f 41/200/251 16/14/251 17/15/251
f 38/38/252 39/40/252 36/36/252
f 39/40/253 40/201/253 41/41/253
f 38/38/254 42/46/254 40/43/254
f 41/202/255 40/51/255 43/50/255
f 41/203/256 43/50/256 44/53/256
f 41/204/257 44/53/257 45/55/257
f 41/45/258 45/55/258 10/6/258
f 40/48/259 4/47/259 46/205/259
f 40/206/260 46/205/260 47/49/260
f 47/49/261 48/52/261 43/50/261
f 48/52/262 99/207/262 44/53/262
f 44/53/263 99/207/263 49/54/263
f 49/54/264 9/4/264 10/6/264
f 97/130/265 136/193/265 70/83/265
f 91/122/266 96/129/266 75/115/266
f 70/83/267 75/115/267 96/129/267
f 136/193/268 66/79/268 70/83/268
