# Blender v2.77 (sub 0) OBJ File: ''
# www.blender.org
mtllib track_metal_right_hole.mtl
o Cylinder
v -3.790834 0.798839 33.374577
v -3.939191 0.798839 31.868277
v 1.903997 0.798839 31.292774
v 2.052354 0.798839 32.799076
v -9.634023 0.798839 32.799072
v -9.634023 60.701202 32.799088
v -3.790834 60.701202 33.374592
v -15.252659 0.798839 31.094669
v -15.252659 60.701202 31.094681
v -20.430824 0.798839 28.326878
v -20.430824 60.701202 28.326889
v -24.969524 0.798840 24.602057
v -24.969524 60.701202 24.602068
v -28.694334 0.798841 20.063356
v -28.694334 60.701202 20.063368
v -31.462116 0.798842 14.885189
v -31.462116 60.701202 14.885201
v -33.166512 0.798844 9.266551
v -33.166512 60.701206 9.266563
v -33.742008 0.798844 3.423362
v -33.742008 60.701206 3.423375
v -33.166496 0.798845 -2.419825
v -33.166496 60.701206 -2.419812
v -15.252605 0.798850 -24.247908
v -15.252605 60.701210 -24.247896
v -9.633965 0.798850 -25.952293
v -9.633965 60.701210 -25.952282
v -3.790825 60.701210 -26.527777
v -3.643024 60.701210 -25.027126
v -3.643024 0.798850 -25.027138
v -3.790825 0.798850 -26.527788
v -3.939191 60.701202 31.868288
v 1.903997 60.701202 31.292786
v 2.052354 60.701202 32.799091
v -9.486165 0.798850 -24.451643
v -9.486165 60.701210 -24.451632
vt 1.3053 -1.0014
vt 1.2405 -1.0665
vt 1.2418 -1.2946
vt 1.3340 -1.3484
vt 1.3053 -0.8012
vt -0.7373 -0.8012
vt -0.7373 -1.0014
vt 1.3053 -0.6010
vt -0.7373 -0.6010
vt 1.3053 -0.4008
vt -0.7373 -0.4008
vt 1.3053 -0.2006
vt -0.7373 -0.2005
vt 1.3053 -0.0003
vt -0.7373 -0.0003
vt 1.3053 0.1999
vt -0.7373 0.1999
vt 1.3053 0.4001
vt -0.7373 0.4001
vt 1.3053 0.6003
vt -0.7373 0.6003
vt 1.3053 0.8005
vt -0.7373 0.8005
vt 1.3053 1.8015
vt 1.3053 2.0017
vt -0.7373 2.0017
vt -0.7373 1.8015
vt -0.7659 2.3484
vt -0.6741 2.2948
vt 1.2121 2.2834
vt 1.2767 2.3484
vt -0.6450 -1.0551
vt -0.6437 -1.2832
vt -0.7085 -1.3484
vt 1.2135 2.0553
vt -0.6727 2.0667
vn -0.0000 -1.0000 -0.0000
vn 0.0980 0.0000 -0.9952
vn 0.2903 0.0000 -0.9569
vn 0.4714 0.0000 -0.8819
vn 0.6344 0.0000 -0.7730
vn 0.7730 0.0000 -0.6344
vn 0.8819 0.0000 -0.4714
vn 0.9569 0.0000 -0.2903
vn 0.9952 0.0000 -0.0980
vn 0.9952 -0.0000 0.0980
vn 0.2903 -0.0000 0.9569
vn -0.0980 0.0000 -0.9952
vn 0.0000 1.0000 0.0000
vn -0.9952 -0.0000 0.0980
vn 0.0980 -0.0000 0.9952
usemtl right_metal
s 1
f 1/1/1 2/2/1 3/3/1 4/4/1
f 1/1/2 5/5/2 6/6/2 7/7/2
f 5/5/3 8/8/3 9/9/3 6/6/3
f 8/8/4 10/10/4 11/11/4 9/9/4
f 10/10/5 12/12/5 13/13/5 11/11/5
f 12/12/6 14/14/6 15/15/6 13/13/6
f 14/14/7 16/16/7 17/17/7 15/15/7
f 16/16/8 18/18/8 19/19/8 17/17/8
f 18/18/9 20/20/9 21/21/9 19/19/9
f 20/20/10 22/22/10 23/23/10 21/21/10
f 24/24/11 26/25/11 27/26/11 25/27/11
f 28/28/9 29/29/9 30/30/9 31/31/9
f 3/3/12 2/2/12 32/32/12 33/33/12
f 34/34/13 33/33/13 32/32/13 7/7/13
f 4/4/9 3/3/9 33/33/9 34/34/9
f 7/7/14 32/32/14 2/2/14 1/1/14
f 35/35/15 30/30/15 29/29/15 36/36/15
f 27/26/13 36/36/13 29/29/13 28/28/13
f 26/25/14 35/35/14 36/36/14 27/26/14
f 31/31/1 30/30/1 35/35/1 26/25/1
