# Blender v2.77 (sub 0) OBJ File: 'track.blend'
# www.blender.org
mtllib track.mtl
o Cylinder
v -3.790825 0.798845 -26.527788
v -3.790825 60.701206 -26.527788
v 2.052361 0.798845 -25.952284
v 2.052361 60.701206 -25.952284
v 7.670997 0.798845 -24.247887
v 7.670997 60.701206 -24.247887
v 12.849159 0.798845 -21.480103
v 12.849159 60.701206 -21.480103
v 17.387857 0.798845 -17.755295
v 17.387857 60.701206 -17.755295
v 21.112671 0.798845 -13.216596
v 21.112671 60.701206 -13.216596
v 23.880457 0.798845 -8.038427
v 23.880457 60.701206 -8.038427
v 25.584850 0.798845 -2.419794
v 25.584850 60.701206 -2.419794
v 26.160353 0.798845 3.423389
v 26.160353 60.701206 3.423389
v 25.584854 0.798845 9.266573
v 25.584854 60.701206 9.266573
v 23.880459 0.798845 14.885208
v 23.880459 60.701206 14.885208
v 21.112671 0.798845 20.063372
v 21.112671 60.701206 20.063372
v 17.387857 0.798845 24.602070
v 17.387857 60.701206 24.602070
v 12.849157 0.798845 28.326889
v 12.849157 60.701206 28.326889
v 7.670991 0.798845 31.094677
v 7.670991 60.701206 31.094677
v 2.052354 0.798845 32.799076
v 2.052354 60.701206 32.799076
v -3.790834 0.798845 33.374577
v -3.790834 60.701206 33.374577
v -9.634023 0.798845 32.799072
v -9.634023 60.701206 32.799072
v -15.252659 0.798845 31.094669
v -15.252659 60.701206 31.094669
v -20.430824 0.798845 28.326878
v -20.430824 60.701206 28.326878
v -24.969524 0.798845 24.602057
v -24.969524 60.701206 24.602057
v -28.694334 0.798845 20.063356
v -28.694334 60.701206 20.063356
v -31.462116 0.798845 14.885189
v -31.462116 60.701206 14.885189
v -33.166512 0.798845 9.266551
v -33.166512 60.701206 9.266551
v -33.742008 0.798845 3.423362
v -33.742008 60.701206 3.423362
v -33.166496 0.798845 -2.419825
v -33.166496 60.701206 -2.419825
v -31.462095 0.798845 -8.038460
v -31.462095 60.701206 -8.038460
v -28.694302 0.798845 -13.216627
v -28.694302 60.701206 -13.216627
v -24.969482 0.798845 -17.755322
v -24.969482 60.701206 -17.755322
v -20.430775 0.798845 -21.480127
v -20.430775 60.701206 -21.480127
v -15.252605 0.798845 -24.247908
v -15.252605 60.701206 -24.247908
v -9.633965 0.798845 -25.952293
v -9.633965 60.701206 -25.952293
v 1.903997 60.701206 31.292774
v 1.903997 0.798845 31.292774
v -3.939191 0.798845 31.868277
v -3.939191 60.701206 31.868277
v -3.643024 0.798845 -25.027138
v -3.643024 60.701206 -25.027138
v -9.486165 60.701206 -24.451643
v -9.486165 0.798845 -24.451643
v 19.791138 91.194443 -16.132156
vn -0.0980 0.0000 0.9952
vn -0.2903 0.0000 0.9569
vn -0.4714 0.0000 0.8819
vn -0.6344 0.0000 0.7730
vn -0.7730 0.0000 0.6344
vn -0.8819 0.0000 0.4714
vn -0.9569 0.0000 0.2903
vn -0.9952 0.0000 0.0980
vn -0.9952 0.0000 -0.0980
vn -0.9569 0.0000 -0.2903
vn -0.8819 0.0000 -0.4714
vn -0.7730 0.0000 -0.6344
vn -0.6344 0.0000 -0.7730
vn -0.4714 0.0000 -0.8819
vn -0.2903 0.0000 -0.9569
vn 0.0000 -1.0000 -0.0000
vn 0.0980 0.0000 -0.9952
vn 0.2903 0.0000 -0.9569
vn 0.4714 0.0000 -0.8819
vn 0.6344 0.0000 -0.7730
vn 0.7730 0.0000 -0.6344
vn 0.8819 0.0000 -0.4714
vn 0.9569 0.0000 -0.2903
vn 0.9952 0.0000 -0.0980
vn 0.9952 0.0000 0.0980
vn 0.9569 0.0000 0.2903
vn 0.8819 0.0000 0.4714
vn 0.7730 0.0000 0.6344
vn 0.6344 0.0000 0.7730
vn 0.4714 0.0000 0.8819
vn 0.2903 0.0000 0.9569
vn -0.0980 0.0000 -0.9952
vn 0.0000 1.0000 -0.0000
vn 0.0980 0.0000 0.9952
usemtl None
s off
f 1//1 3//1 4//1 2//1
f 3//2 5//2 6//2 4//2
f 5//3 7//3 8//3 6//3
f 7//4 9//4 10//4 8//4
f 9//5 11//5 12//5 10//5
f 11//6 13//6 14//6 12//6
f 13//7 15//7 16//7 14//7
f 15//8 17//8 18//8 16//8
f 17//9 19//9 20//9 18//9
f 19//10 21//10 22//10 20//10
f 21//11 23//11 24//11 22//11
f 23//12 25//12 26//12 24//12
f 25//13 27//13 28//13 26//13
f 27//14 29//14 30//14 28//14
f 29//15 31//15 32//15 30//15
f 33//16 67//16 66//16 31//16
f 33//17 35//17 36//17 34//17
f 35//18 37//18 38//18 36//18
f 37//19 39//19 40//19 38//19
f 39//20 41//20 42//20 40//20
f 41//21 43//21 44//21 42//21
f 43//22 45//22 46//22 44//22
f 45//23 47//23 48//23 46//23
f 47//24 49//24 50//24 48//24
f 49//25 51//25 52//25 50//25
f 51//26 53//26 54//26 52//26
f 53//27 55//27 56//27 54//27
f 55//28 57//28 58//28 56//28
f 57//29 59//29 60//29 58//29
f 59//30 61//30 62//30 60//30
f 61//31 63//31 64//31 62//31
f 2//24 70//24 69//24 1//24
f 66//32 67//32 68//32 65//32
f 32//33 65//33 68//33 34//33
f 31//24 66//24 65//24 32//24
f 34//8 68//8 67//8 33//8
f 72//34 69//34 70//34 71//34
f 64//33 71//33 70//33 2//33
f 63//8 72//8 71//8 64//8
f 1//16 69//16 72//16 63//16
