# Blender v2.77 (sub 0) OBJ File: 'track.obj'
# www.blender.org
mtllib track_metal.mtl
o Cylinder
v -3.790825 0.798849 -26.527788
v -3.790825 60.701210 -26.527779
v 2.052354 0.798840 32.799076
v 2.052354 60.701202 32.799088
v -3.790834 0.798840 33.374577
v -3.939191 0.798840 31.868277
v 1.903997 0.798840 31.292774
v -9.634023 0.798840 32.799072
v -9.634023 60.701202 32.799084
v -3.790834 60.701202 33.374588
v -15.252659 0.798840 31.094669
v -15.252659 60.701202 31.094679
v -20.430824 0.798840 28.326878
v -20.430824 60.701202 28.326887
v -24.969524 0.798841 24.602057
v -24.969524 60.701202 24.602066
v -28.694334 0.798842 20.063356
v -28.694334 60.701202 20.063366
v -31.462116 0.798843 14.885189
v -31.462116 60.701202 14.885199
v -33.166512 0.798844 9.266551
v -33.166512 60.701206 9.266561
v -33.742008 0.798844 3.423362
v -33.742008 60.701206 3.423372
v -33.166496 0.798845 -2.419825
v -33.166496 60.701206 -2.419815
v -31.462095 0.798846 -8.038460
v -31.462095 60.701206 -8.038450
v -28.694302 0.798847 -13.216627
v -28.694302 60.701210 -13.216618
v -24.969482 0.798848 -17.755322
v -24.969482 60.701210 -17.755312
v -20.430775 0.798849 -21.480127
v -20.430775 60.701210 -21.480118
v -15.252605 0.798849 -24.247908
v -15.252605 60.701210 -24.247898
v -9.633965 0.798849 -25.952293
v -9.633965 60.701210 -25.952284
v -3.643024 60.701210 -25.027128
v -3.643024 0.798849 -25.027138
v -3.939191 60.701202 31.868286
v 1.903997 60.701202 31.292784
v -9.486165 0.798849 -24.451643
v -9.486165 60.701210 -24.451633
vt 1.3053 -1.0014
vt 1.2405 -1.0665
vt 1.2418 -1.2946
vt 1.3340 -1.3484
vt 1.3053 -0.8012
vt -0.7373 -0.8012
vt -0.7373 -1.0014
vt 1.3053 -0.6010
vt -0.7373 -0.6010
vt 1.3053 -0.4008
vt -0.7373 -0.4008
vt 1.3053 -0.2006
vt -0.7373 -0.2005
vt 1.3053 -0.0003
vt -0.7373 -0.0003
vt 1.3053 0.1999
vt -0.7373 0.1999
vt 1.3053 0.4001
vt -0.7373 0.4001
vt 1.3053 0.6003
vt -0.7373 0.6003
vt 1.3053 0.8005
vt -0.7373 0.8005
vt 1.3053 1.0007
vt -0.7373 1.0007
vt 1.3053 1.2009
vt -0.7373 1.2009
vt 1.3053 1.4011
vt -0.7373 1.4011
vt 1.3053 1.6013
vt -0.7373 1.6013
vt 1.3053 1.8015
vt -0.7373 1.8015
vt 1.3053 2.0017
vt -0.7373 2.0017
vt -0.7659 2.3484
vt -0.6741 2.2948
vt 1.2121 2.2834
vt 1.2767 2.3484
vt -0.6450 -1.0551
vt -0.6437 -1.2832
vt -0.7085 -1.3484
vt 1.2135 2.0553
vt -0.6727 2.0667
vn -0.0000 -1.0000 -0.0000
vn 0.0980 0.0000 -0.9952
vn 0.2903 0.0000 -0.9569
vn 0.4714 0.0000 -0.8819
vn 0.6344 0.0000 -0.7730
vn 0.7730 0.0000 -0.6344
vn 0.8819 0.0000 -0.4714
vn 0.9569 0.0000 -0.2903
vn 0.9952 0.0000 -0.0980
vn 0.9952 0.0000 0.0980
vn 0.9569 -0.0000 0.2903
vn 0.8819 -0.0000 0.4714
vn 0.7730 -0.0000 0.6344
vn 0.6344 -0.0000 0.7730
vn 0.4714 -0.0000 0.8819
vn 0.2903 -0.0000 0.9569
vn -0.0980 0.0000 -0.9952
vn 0.0000 1.0000 0.0000
vn -0.9952 -0.0000 0.0980
vn 0.0980 -0.0000 0.9952
usemtl None
s 1
f 5/1/1 6/2/1 7/3/1 3/4/1
f 5/1/2 8/5/2 9/6/2 10/7/2
f 8/5/3 11/8/3 12/9/3 9/6/3
f 11/8/4 13/10/4 14/11/4 12/9/4
f 13/10/5 15/12/5 16/13/5 14/11/5
f 15/12/6 17/14/6 18/15/6 16/13/6
f 17/14/7 19/16/7 20/17/7 18/15/7
f 19/16/8 21/18/8 22/19/8 20/17/8
f 21/18/9 23/20/9 24/21/9 22/19/9
f 23/20/10 25/22/10 26/23/10 24/21/10
f 25/22/11 27/24/11 28/25/11 26/23/11
f 27/24/12 29/26/12 30/27/12 28/25/12
f 29/26/13 31/28/13 32/29/13 30/27/13
f 31/28/14 33/30/14 34/31/14 32/29/14
f 33/30/15 35/32/15 36/33/15 34/31/15
f 35/32/16 37/34/16 38/35/16 36/33/16
f 2/36/9 39/37/9 40/38/9 1/39/9
f 7/3/17 6/2/17 41/40/17 42/41/17
f 4/42/18 42/41/18 41/40/18 10/7/18
f 3/4/9 7/3/9 42/41/9 4/42/9
f 10/7/19 41/40/19 6/2/19 5/1/19
f 43/43/20 40/38/20 39/37/20 44/44/20
f 38/35/18 44/44/18 39/37/18 2/36/18
f 37/34/19 43/43/19 44/44/19 38/35/19
f 1/39/1 40/38/1 43/43/1 37/34/1
